<?xml version="1.0" standalone="no"?>
<!DOCTYPE svg PUBLIC "-//W3C//DTD SVG 20010904//EN"
 "http://www.w3.org/TR/2001/REC-SVG-20010904/DTD/svg10.dtd">
<svg version="1.0" xmlns="http://www.w3.org/2000/svg"
 width="630.000000pt" height="200.000000pt" viewBox="0 0 630.000000 200.000000"
 preserveAspectRatio="xMidYMid meet">
<metadata>
Created by potrace 1.15, written by Peter Selinger 2001-2017
</metadata>
<g transform="translate(0.000000,200.000000) scale(0.100000,-0.100000)"
fill="#000000" stroke="none">
<path d="M1050 1799 c-47 -10 -139 -30 -205 -44 -410 -84 -503 -104 -525 -113
-46 -18 -97 -85 -110 -143 -8 -38 -10 -198 -8 -529 l3 -475 40 1 c22 0 74 8
115 18 41 9 129 28 195 41 66 13 163 33 215 44 52 11 120 25 150 31 146 30
183 44 220 79 46 43 60 90 60 193 0 83 -5 90 -55 77 -16 -4 -77 -18 -135 -29
-90 -19 -430 -89 -512 -107 l-28 -5 0 61 c0 33 2 61 5 61 8 0 240 47 320 65
39 9 104 22 147 30 119 22 155 33 189 62 50 43 69 94 69 196 0 105 16 100
-190 56 -80 -16 -199 -41 -265 -54 -66 -14 -151 -32 -190 -40 -38 -8 -73 -15
-77 -15 -5 0 -8 27 -8 59 l0 59 58 11 c53 10 188 38 372 77 41 9 96 20 122 24
126 23 178 93 178 245 l0 85 -32 -1 c-18 -1 -71 -10 -118 -20z"/>
<path d="M4932 1344 c-20 -14 -22 -23 -22 -125 l0 -110 -31 17 c-69 35 -129
47 -178 33 -162 -44 -243 -217 -180 -384 40 -108 119 -166 224 -166 64 0 90 6
129 34 l29 20 17 -23 c12 -16 28 -23 49 -23 60 0 60 3 61 375 l0 337 -22 15
c-12 9 -29 16 -38 16 -9 0 -26 -7 -38 -16z m-102 -309 c80 -41 108 -171 54
-251 -31 -46 -38 -51 -85 -64 -61 -17 -132 18 -165 82 -21 40 -18 122 6 169
37 71 121 100 190 64z"/>
<path d="M1597 1155 c-21 -8 -51 -23 -66 -35 -37 -25 -44 -25 -56 3 -7 16 -20
23 -47 25 -33 3 -39 -1 -53 -28 -23 -44 -18 -461 5 -484 27 -25 56 -28 81 -7
23 19 24 25 29 191 l5 172 33 29 c40 36 106 40 143 10 23 -19 24 -25 29 -200
5 -191 8 -201 56 -215 14 -4 30 0 45 13 23 19 24 25 29 191 l5 172 33 29 c24
22 42 29 73 29 93 0 109 -36 109 -251 0 -156 0 -159 24 -174 28 -19 69 -7 85
24 17 31 14 315 -4 381 -20 76 -42 102 -106 123 -51 18 -57 18 -107 2 -32 -10
-66 -30 -88 -52 l-36 -36 -32 36 c-29 35 -97 68 -135 66 -9 0 -33 -7 -54 -14z"/>
<path d="M2530 1158 c-19 -6 -50 -22 -69 -36 l-34 -25 -19 26 c-23 31 -67 36
-92 11 -14 -13 -16 -59 -16 -353 0 -315 1 -339 18 -354 25 -23 58 -21 82 3 17
17 20 33 20 125 0 58 3 105 6 105 3 0 20 -10 37 -22 47 -33 168 -38 224 -9 47
23 89 69 114 126 27 58 26 197 -1 258 -48 107 -174 175 -270 145z m106 -127
c39 -23 74 -94 74 -147 0 -101 -96 -190 -178 -166 -124 37 -158 212 -58 298
33 28 48 34 85 34 28 0 59 -8 77 -19z"/>
<path d="M3151 1155 c-24 -7 -54 -24 -67 -36 l-24 -22 -21 26 c-14 19 -30 27
-50 27 -58 0 -59 -5 -59 -269 l0 -241 25 -16 c27 -18 62 -11 82 15 9 11 12 64
13 169 0 161 6 187 50 227 18 16 34 20 87 17 74 -3 93 7 93 49 0 22 -8 34 -32
49 -38 23 -39 23 -97 5z"/>
<path d="M3515 1156 c-133 -42 -198 -133 -198 -276 0 -171 100 -271 272 -271
118 0 201 42 201 103 0 44 -39 57 -93 31 -61 -30 -100 -36 -148 -23 -48 13
-109 69 -109 101 0 18 9 19 175 19 165 0 176 1 196 21 18 18 20 28 15 72 -15
108 -86 188 -201 224 -48 15 -59 15 -110 -1z m146 -145 c22 -22 39 -46 37 -53
-3 -10 -37 -14 -127 -16 -134 -3 -148 3 -115 53 24 36 61 54 116 55 41 0 52
-5 89 -39z"/>
<path d="M4170 1158 c-19 -5 -53 -23 -75 -39 -27 -21 -41 -26 -44 -17 -14 47
-74 63 -104 30 -15 -16 -17 -49 -17 -248 0 -254 3 -267 58 -267 59 0 62 9 62
180 0 168 9 207 53 236 15 9 45 17 67 17 95 0 110 -34 110 -243 0 -173 6 -190
60 -190 55 0 60 17 60 199 0 190 -11 253 -51 299 -38 42 -116 62 -179 43z"/>
<path d="M5310 1154 c-61 -19 -110 -61 -145 -125 -26 -48 -29 -63 -28 -144 0
-103 20 -159 75 -211 51 -49 94 -66 164 -66 49 -1 73 5 110 26 47 26 49 26 64
8 8 -11 23 -22 33 -25 25 -9 64 12 71 37 7 27 7 445 0 472 -8 30 -49 47 -77
32 -12 -6 -27 -19 -34 -28 -11 -16 -16 -16 -60 6 -62 30 -117 36 -173 18z
m150 -119 c86 -45 108 -191 39 -270 -39 -44 -85 -60 -136 -46 -103 28 -145
163 -85 269 32 55 121 78 182 47z"/>
<path d="M6020 1158 c-19 -6 -50 -22 -68 -36 -18 -13 -35 -22 -36 -21 -2 2 -9
14 -15 27 -15 28 -70 31 -94 4 -15 -16 -17 -48 -17 -248 1 -253 4 -267 59
-267 58 0 61 10 61 180 0 132 3 159 19 192 30 57 44 65 118 63 74 -2 93 8 93
48 0 50 -56 77 -120 58z"/>
<path d="M636 484 c-136 -27 -181 -86 -171 -223 9 -113 11 -119 55 -141 74
-38 209 -20 290 38 66 47 70 57 70 171 l0 103 -34 34 c-31 31 -39 34 -87 33
-30 -1 -85 -8 -123 -15z"/>
<path d="M729 95 c-3 -2 -32 -6 -64 -9 -50 -3 -60 -7 -60 -22 0 -30 92 -32
128 -4 15 12 27 26 27 31 0 9 -23 13 -31 4z"/>
</g>
</svg>
