<svg width="42" height="22" viewBox="0 0 42 22" fill="none" xmlns="http://www.w3.org/2000/svg">
<path d="M21.0001 21.48C20.7495 21.4739 20.5104 21.374 20.3301 21.2L1.28009 2.15002C1.1412 2.0772 1.02136 1.97271 0.930296 1.84503C0.839229 1.71735 0.779426 1.57007 0.755796 1.41504C0.732167 1.26 0.745352 1.10158 0.794249 0.952574C0.843145 0.803566 0.926398 0.668141 1.03729 0.557249C1.14818 0.446357 1.28361 0.363103 1.43262 0.314207C1.58162 0.265311 1.74004 0.252125 1.89508 0.275755C2.05011 0.299385 2.1974 0.359127 2.32507 0.450193C2.45275 0.54126 2.55724 0.661093 2.63006 0.799986L21.0001 19.18L39.3701 0.799986C39.4429 0.661093 39.5474 0.54126 39.675 0.450193C39.8027 0.359127 39.95 0.299385 40.105 0.275755C40.2601 0.252125 40.4185 0.265311 40.5675 0.314207C40.7165 0.363103 40.8519 0.446357 40.9628 0.557249C41.0737 0.668141 41.157 0.803566 41.2059 0.952574C41.2548 1.10158 41.268 1.26 41.2443 1.41504C41.2207 1.57007 41.1609 1.71735 41.0698 1.84503C40.9788 1.97271 40.8589 2.0772 40.72 2.15002L21.67 21.2C21.4897 21.374 21.2506 21.4739 21.0001 21.48Z" fill="white"/>
</svg>
