<svg width="12" height="24" viewBox="0 0 12 24" fill="none" xmlns="http://www.w3.org/2000/svg">
<path d="M11.7601 12.0001C11.7603 12.1382 11.7064 12.271 11.6101 12.3701L1.13013 22.85C1.08154 22.8986 1.02381 22.9372 0.960327 22.9635C0.896842 22.9898 0.828847 23.0033 0.760132 23.0033C0.691416 23.0033 0.623421 22.9898 0.559937 22.9635C0.496452 22.9372 0.438726 22.8986 0.390137 22.85C0.341548 22.8014 0.30303 22.7438 0.276733 22.6803C0.250437 22.6168 0.236816 22.5488 0.236816 22.48C0.236816 22.4113 0.250437 22.3433 0.276733 22.2798C0.30303 22.2164 0.341548 22.1586 0.390137 22.11L10.5001 12.0001L0.390137 1.89008C0.292007 1.79195 0.236816 1.65886 0.236816 1.52008C0.236816 1.3813 0.292007 1.24822 0.390137 1.15009C0.488267 1.05196 0.621355 0.996826 0.760132 0.996826C0.898909 0.996826 1.032 1.05196 1.13013 1.15009L11.6101 11.6301C11.7064 11.7291 11.7603 11.8619 11.7601 12.0001Z" fill="#FFF32A"/>
</svg>
