<svg width="13" height="23" viewBox="0 0 13 23" fill="none" xmlns="http://www.w3.org/2000/svg">
<path d="M12.26 11.7298C12.2602 11.868 12.2063 12.0007 12.11 12.0998L1.63 22.5798C1.53187 22.678 1.39879 22.7331 1.26001 22.7331C1.12123 22.7331 0.988145 22.678 0.890015 22.5798C0.791885 22.4817 0.736694 22.3486 0.736694 22.2098C0.736694 22.0711 0.791885 21.938 0.890015 21.8398L11 11.7298L0.890015 1.61981C0.791885 1.52168 0.736694 1.38859 0.736694 1.24982C0.736694 1.11104 0.791885 0.977952 0.890015 0.879822C0.988145 0.781692 1.12123 0.726563 1.26001 0.726562C1.39879 0.726562 1.53187 0.781692 1.63 0.879822L12.11 11.3598C12.2063 11.4589 12.2602 11.5916 12.26 11.7298Z" fill="black"/>
</svg>
